<?xml version="1.0"?>
<svg width="103" height="35" xmlns="http://www.w3.org/2000/svg" xmlns:svg="http://www.w3.org/2000/svg">

 <g class="layer">
  <title>Layer 1</title>
  <path d="m1.71,28l0,-13.44l3.08,0l0,13.44l-3.08,0zm3.08,-7.48l-1.07,-0.53c0,-1.7 0.38,-3.07 1.12,-4.11c0.77,-1.07 1.92,-1.6 3.45,-1.6c0.67,0 1.28,0.12 1.82,0.36c0.54,0.25 1.04,0.64 1.51,1.18l-2.02,2.07c-0.24,-0.26 -0.51,-0.45 -0.81,-0.56c-0.3,-0.11 -0.64,-0.17 -1.03,-0.17c-0.86,0 -1.57,0.27 -2.13,0.82c-0.56,0.54 -0.84,1.39 -0.84,2.54zm14.15,7.76c-1.34,0 -2.55,-0.3 -3.64,-0.9c-1.06,-0.61 -1.91,-1.45 -2.54,-2.52c-0.62,-1.06 -0.93,-2.25 -0.93,-3.58c0,-1.33 0.31,-2.51 0.93,-3.56c0.61,-1.06 1.44,-1.9 2.49,-2.52c1.06,-0.61 2.24,-0.92 3.53,-0.92c1.25,0 2.35,0.29 3.3,0.87c0.97,0.58 1.73,1.37 2.27,2.38c0.56,1.01 0.84,2.15 0.84,3.44c0,0.23 -0.02,0.46 -0.06,0.7c-0.02,0.23 -0.05,0.48 -0.11,0.76l-11.03,0l0,-2.52l9.43,0l-1.14,1.01c-0.04,-0.83 -0.2,-1.52 -0.48,-2.08c-0.28,-0.56 -0.68,-0.99 -1.2,-1.28c-0.51,-0.3 -1.13,-0.45 -1.88,-0.45c-0.78,0 -1.47,0.17 -2.04,0.5c-0.58,0.34 -1.03,0.81 -1.35,1.43c-0.32,0.6 -0.47,1.32 -0.47,2.16c0,0.84 0.16,1.57 0.5,2.21c0.34,0.63 0.81,1.13 1.43,1.48c0.61,0.34 1.32,0.51 2.13,0.51c0.69,0 1.32,-0.13 1.9,-0.37c0.6,-0.24 1.1,-0.6 1.51,-1.06l1.96,1.99c-0.65,0.76 -1.44,1.34 -2.38,1.73c-0.93,0.39 -1.92,0.59 -2.97,0.59zm13.11,0c-0.74,0 -1.46,-0.09 -2.15,-0.28c-0.69,-0.21 -1.33,-0.49 -1.91,-0.84c-0.58,-0.37 -1.08,-0.82 -1.51,-1.34l1.96,-1.96c0.47,0.54 1,0.95 1.6,1.23c0.61,0.26 1.3,0.39 2.07,0.39c0.69,0 1.21,-0.1 1.57,-0.31c0.35,-0.2 0.53,-0.5 0.53,-0.89c0,-0.41 -0.17,-0.73 -0.5,-0.96c-0.34,-0.22 -0.78,-0.41 -1.32,-0.56c-0.52,-0.16 -1.08,-0.33 -1.68,-0.5c-0.58,-0.17 -1.14,-0.39 -1.68,-0.67c-0.52,-0.3 -0.95,-0.7 -1.29,-1.21c-0.33,-0.5 -0.5,-1.15 -0.5,-1.96c0,-0.85 0.19,-1.59 0.59,-2.21c0.41,-0.61 0.98,-1.09 1.7,-1.43c0.75,-0.33 1.64,-0.5 2.66,-0.5c1.09,0 2.04,0.2 2.86,0.59c0.84,0.37 1.54,0.94 2.1,1.71l-1.96,1.96c-0.39,-0.49 -0.84,-0.85 -1.34,-1.1c-0.51,-0.24 -1.09,-0.36 -1.74,-0.36c-0.62,0 -1.09,0.09 -1.43,0.28c-0.33,0.19 -0.5,0.46 -0.5,0.81c0,0.38 0.17,0.66 0.5,0.87c0.34,0.21 0.77,0.38 1.29,0.53c0.54,0.15 1.1,0.32 1.68,0.51c0.6,0.16 1.16,0.41 1.68,0.72c0.54,0.3 0.98,0.71 1.32,1.24c0.33,0.5 0.5,1.16 0.5,1.98c0,1.31 -0.46,2.35 -1.37,3.11c-0.92,0.77 -2.16,1.15 -3.73,1.15zm13.15,0c-1.13,0 -2.15,-0.25 -3.05,-0.76c-0.87,-0.5 -1.57,-1.19 -2.07,-2.07c-0.48,-0.89 -0.73,-1.92 -0.73,-3.08l0,-7.81l3.08,0l0,7.67c0,0.66 0.11,1.22 0.31,1.68c0.22,0.45 0.54,0.8 0.95,1.04c0.43,0.24 0.94,0.36 1.51,0.36c0.9,0 1.58,-0.26 2.05,-0.78c0.48,-0.54 0.73,-1.31 0.73,-2.3l0,-7.67l3.08,0l0,7.81c0,1.18 -0.26,2.21 -0.76,3.11c-0.48,0.88 -1.17,1.57 -2.04,2.07c-0.88,0.49 -1.9,0.73 -3.06,0.73zm8.95,-0.28l0,-13.44l3.08,0l0,13.44l-3.08,0zm8.94,0l0,-8.01c0,-0.89 -0.28,-1.58 -0.84,-2.07c-0.56,-0.5 -1.26,-0.76 -2.08,-0.76c-0.56,0 -1.06,0.12 -1.51,0.34c-0.43,0.22 -0.77,0.55 -1.03,0.98c-0.27,0.41 -0.4,0.91 -0.4,1.51l-1.2,-0.67c0,-1.03 0.22,-1.91 0.67,-2.66c0.45,-0.75 1.06,-1.33 1.82,-1.74c0.77,-0.43 1.63,-0.64 2.58,-0.64c0.95,0 1.81,0.21 2.57,0.62c0.77,0.41 1.38,0.99 1.82,1.73c0.45,0.75 0.68,1.64 0.68,2.69l0,8.68l-3.08,0zm8.93,0l0,-8.01c0,-0.89 -0.28,-1.58 -0.84,-2.07c-0.56,-0.5 -1.25,-0.76 -2.07,-0.76c-0.55,0 -1.04,0.12 -1.49,0.34c-0.45,0.22 -0.8,0.55 -1.06,0.98c-0.26,0.41 -0.39,0.91 -0.39,1.51l-1.74,-0.67c0.09,-1.03 0.39,-1.91 0.9,-2.66c0.5,-0.75 1.14,-1.33 1.93,-1.74c0.8,-0.43 1.68,-0.64 2.63,-0.64c0.97,0 1.85,0.21 2.63,0.62c0.79,0.41 1.41,0.99 1.88,1.73c0.46,0.75 0.7,1.64 0.7,2.69l0,8.68l-3.08,0zm12.49,0.28c-1.34,0 -2.55,-0.3 -3.64,-0.9c-1.06,-0.61 -1.91,-1.45 -2.54,-2.52c-0.62,-1.06 -0.93,-2.25 -0.93,-3.58c0,-1.33 0.31,-2.51 0.93,-3.56c0.61,-1.06 1.44,-1.9 2.49,-2.52c1.06,-0.61 2.24,-0.92 3.53,-0.92c1.25,0 2.35,0.29 3.3,0.87c0.97,0.58 1.73,1.37 2.27,2.38c0.56,1.01 0.84,2.15 0.84,3.44c0,0.23 -0.02,0.46 -0.06,0.7c-0.02,0.23 -0.05,0.48 -0.11,0.76l-11.03,0l0,-2.52l9.43,0l-1.14,1.01c-0.04,-0.83 -0.2,-1.52 -0.48,-2.08c-0.28,-0.56 -0.68,-0.99 -1.2,-1.28c-0.51,-0.3 -1.13,-0.45 -1.88,-0.45c-0.78,0 -1.46,0.17 -2.04,0.5c-0.58,0.34 -1.03,0.81 -1.35,1.43c-0.31,0.6 -0.47,1.32 -0.47,2.16c0,0.84 0.16,1.57 0.5,2.21c0.34,0.63 0.81,1.13 1.43,1.48c0.61,0.34 1.32,0.51 2.13,0.51c0.69,0 1.32,-0.13 1.9,-0.37c0.6,-0.24 1.1,-0.6 1.51,-1.06l1.96,1.99c-0.65,0.76 -1.44,1.34 -2.38,1.73c-0.93,0.39 -1.92,0.59 -2.97,0.59z" fill="#020618" id="svg_1"/>
  <rect fill="#ff7f00" height="5" id="svg_2" rx="2.5" stroke="#ff7f00" stroke-width="2" transform="matrix(1, 0, 0, 1, 0, 0)" width="5" x="97" y="22"/>
 </g>
</svg>